<?xml version="1.0" encoding="utf-8"?>
<!-- Generator: Adobe Illustrator 21.0.0, SVG Export Plug-In . SVG Version: 6.00 Build 0)  -->
<svg version="1.1" id="Layer_1" xmlns="http://www.w3.org/2000/svg" xmlns:xlink="http://www.w3.org/1999/xlink" x="0px" y="0px"
	 viewBox="0 0 34 34" style="enable-background:new 0 0 34 34;" xml:space="preserve">
<style type="text/css">
	.st0{fill:#00C58A;}
	.st1{fill:#FFFFFF;}
</style>
<path class="st0" d="M32.5,20.9c-2.1,8.6-10.8,13.8-19.4,11.6S-0.7,21.7,1.5,13.1S12.3-0.7,20.9,1.5S34.7,12.3,32.5,20.9L32.5,20.9z
	"/>
<path class="st1" d="M21.6,10.8c-0.9-1.9-2.9-2-5.2-1.3l-1-2.8l-1.7,0.6l1,2.7c-0.4,0.2-0.9,0.3-1.3,0.5l-1-2.7l-1.7,0.6l1,2.8
	l-3.4,1.3l0.7,1.8c0,0,1.2-0.5,1.2-0.5c0.7-0.3,1.1,0.1,1.3,0.4l2.8,7.6c0.1,0.2,0.1,0.6-0.4,0.8c0,0-1.2,0.5-1.2,0.5l0.4,2.2
	l3.4-1.3l1.1,2.8l1.7-0.6l-1-2.8c0.5-0.2,0.9-0.3,1.4-0.5l1,2.8l1.7-0.6l-1-2.8c2.8-1.2,4.5-2.7,3.8-5.5c-0.6-2.2-2-2.8-3.7-2.6
	C22,13.3,22.3,12.2,21.6,10.8 M21.5,17.7c0.8,2.1-2.9,3.2-4.1,3.6L16,17.6C17.2,17.1,20.6,15.5,21.5,17.7 M18.7,12.7
	c0.7,1.9-2.4,2.8-3.3,3.2l-1.3-3.4C15.1,12.1,18,10.7,18.7,12.7"/>
</svg>
