<?xml version="1.0" encoding="utf-8"?>
<!-- Generator: Adobe Illustrator 21.0.0, SVG Export Plug-In . SVG Version: 6.00 Build 0)  -->
<svg version="1.1" id="Layer_1" xmlns="http://www.w3.org/2000/svg" xmlns:xlink="http://www.w3.org/1999/xlink" x="0px" y="0px"
	 viewBox="0 0 34 34" style="enable-background:new 0 0 34 34;" xml:space="preserve">
<style type="text/css">
	.st0{fill:#F7931A;}
	.st1{fill:#FFFFFF;}
</style>
<path class="st0" d="M32.5,20.9c-2.1,8.6-10.8,13.8-19.4,11.7C4.6,30.4-0.7,21.7,1.5,13.1C3.6,4.5,12.3-0.7,20.9,1.5
	C29.4,3.6,34.7,12.3,32.5,20.9L32.5,20.9z"/>
<path class="st1" d="M24,14.7c0.3-2.1-1.3-3.3-3.5-4l0.7-2.9l-1.8-0.4l-0.7,2.8c-0.5-0.1-0.9-0.2-1.4-0.3L18.1,7l-1.8-0.4l-0.7,2.9
	c-0.4-0.1-0.8-0.2-1.1-0.3l0,0l-2.4-0.6l-0.5,1.9c0,0,1.3,0.3,1.3,0.3c0.7,0.2,0.8,0.6,0.8,1l-0.8,3.3c0,0,0.1,0,0.2,0.1l-0.2,0
	l-1.1,4.6c-0.1,0.2-0.3,0.5-0.8,0.4c0,0-1.3-0.3-1.3-0.3l-0.9,2l2.3,0.6c0.4,0.1,0.8,0.2,1.3,0.3l-0.7,2.9l1.8,0.4l0.7-2.9
	c0.5,0.1,0.9,0.3,1.4,0.4l-0.7,2.9l1.8,0.4l0.7-2.9c3,0.6,5.2,0.3,6.2-2.4c0.8-2.2,0-3.4-1.6-4.3C23,17,23.8,16.3,24,14.7L24,14.7z
	 M20,20.3c-0.5,2.2-4.2,1-5.4,0.7l1-3.9C16.8,17.5,20.6,18.1,20,20.3L20,20.3z M20.6,14.7c-0.5,2-3.6,1-4.5,0.7l0.9-3.5
	C17.9,12.1,21.1,12.6,20.6,14.7z"/>
</svg>
