<?xml version="1.0" encoding="utf-8"?>
<!-- Generator: Adobe Illustrator 21.0.0, SVG Export Plug-In . SVG Version: 6.00 Build 0)  -->
<svg version="1.1" id="Layer_1" xmlns="http://www.w3.org/2000/svg" xmlns:xlink="http://www.w3.org/1999/xlink" x="0px" y="0px"
	 viewBox="0 0 34 34" style="enable-background:new 0 0 34 34;" xml:space="preserve">
<style type="text/css">
	.st0{filter:url(#Adobe_OpacityMaskFilter);}
	.st1{fill:#FFFFFF;}
	.st2{mask:url(#b_1_);fill:#CC8E58;}
	.st3{fill:#CC8E58;}
	.st4{fill:#2D2113;}
	.st5{fill:#2C1800;}
	.st6{filter:url(#Adobe_OpacityMaskFilter_1_);}
	.st7{mask:url(#d_1_);fill:#A8633A;}
	.st8{fill:#A8633A;}
	.st9{fill:#EBE8DB;}
	.st10{fill:#5D2900;}
	.st11{filter:url(#Adobe_OpacityMaskFilter_2_);}
	.st12{mask:url(#f_1_);fill:#A8633A;}
	.st13{fill:#D6B795;}
	.st14{fill:#DBD5C3;}
	.st15{filter:url(#Adobe_OpacityMaskFilter_3_);}
	.st16{mask:url(#h_1_);fill:#4D2F00;}
	.st17{filter:url(#Adobe_OpacityMaskFilter_4_);}
	.st18{mask:url(#j_1_);fill:#2C1800;}
	.st19{filter:url(#Adobe_OpacityMaskFilter_5_);}
	.st20{mask:url(#l_1_);fill:#ECD9CB;}
	.st21{fill:#262626;}
	.st22{fill:#918A85;}
	.st23{fill:#5C524A;}
	.st24{filter:url(#Adobe_OpacityMaskFilter_6_);}
	.st25{mask:url(#n_1_);fill:#A8633A;}
	.st26{filter:url(#Adobe_OpacityMaskFilter_7_);}
	.st27{mask:url(#p_1_);fill:#807664;}
	.st28{fill:#CFC7AF;}
	.st29{filter:url(#Adobe_OpacityMaskFilter_8_);}
	.st30{mask:url(#r_1_);fill:#4D2F00;}
	.st31{filter:url(#Adobe_OpacityMaskFilter_9_);}
	.st32{mask:url(#t_1_);fill:#2C1800;}
	.st33{filter:url(#Adobe_OpacityMaskFilter_10_);}
	.st34{mask:url(#v_1_);fill:#ECD9CB;}
	.st35{fill:#D9AA8B;}
</style>
<g>
	<defs>
		<filter id="Adobe_OpacityMaskFilter" filterUnits="userSpaceOnUse" x="2.2" y="1" width="29.5" height="32.2">
			<feColorMatrix  type="matrix" values="1 0 0 0 0  0 1 0 0 0  0 0 1 0 0  0 0 0 1 0"/>
		</filter>
	</defs>
	<mask maskUnits="userSpaceOnUse" x="2.2" y="1" width="29.5" height="32.2" id="b_1_">
		<g class="st0">
			<path id="a_1_" class="st1" d="M2.2,1h29.5v32.2H2.2V1z"/>
		</g>
	</mask>
	<path class="st2" d="M30.9,1.4L29.4,1l-2.1,1.2l-3.6,2.9l-1.8-0.5l-2-0.4l-3,0.4l-3-0.4l-2,0.4l-1.8,0.5L6.6,2.2L4.4,1L2.9,1.4
		L2.2,2.5v4.4l0.5,1.8l0.1,1.8l1.2,2.4L4,15.4l-0.5,2.8l-0.3,3.5l1.3,2.2l2.1,1.8L7,26.1l1.6,3.5l2.5,1.9l0.9,0.7l4.8,1h0l4.8-1
		l0.9-0.7l2.5-1.9l1.6-3.5l0.4-0.4l2.1-1.8l1.3-2.2l-0.3-3.5l-0.5-2.8l0.1-2.5l1.2-2.4l0.1-1.8l0.5-1.8V2.5L30.9,1.4z"/>
</g>
<path class="st3" d="M23,11.1l-1.4-0.2l-0.6-2.5l-4.1,4.7l-3-3.4l-1.2-1.3l-0.6,2.5l-1.4,0.2l-1.1,1.2l0.6,1.7l0.3-0.9l1.6-0.6
	l1.1,1.5l0,1.1l-1.2,3.9l-0.6,3l3-3.2l1.6-0.5l0.8-5.2l0.8,5.2l1.6,0.5l3,3.2l-0.6-3l-1.2-3.9l0-1.1l1.1-1.5l1.6,0.6l0.3,0.9
	l0.6-1.7L23,11.1z"/>
<path class="st4" d="M8.6,5.7L6.5,3.2L4.2,2.5L3.3,2.7L2.9,4.2V7l1.2,2.2l2.1,1.4l2.1-1.9L8.6,5.7z"/>
<path class="st5" d="M16.9,12.5l-0.5-5.4l0.5,0.1L16.9,12.5z"/>
<g>
	<defs>
		<filter id="Adobe_OpacityMaskFilter_1_" filterUnits="userSpaceOnUse" x="2.2" y="1" width="14.7" height="15.1">
			<feColorMatrix  type="matrix" values="1 0 0 0 0  0 1 0 0 0  0 0 1 0 0  0 0 0 1 0"/>
		</filter>
	</defs>
	<mask maskUnits="userSpaceOnUse" x="2.2" y="1" width="14.7" height="15.1" id="d_1_">
		<g class="st6">
			<path id="c_1_" class="st1" d="M2.2,1h14.7v15.1H2.2V1z"/>
		</g>
	</mask>
	<path class="st7" d="M12.2,5l-2,0.1L6.6,2.2L4.4,1L2.9,1.4L2.2,2.5v2.8l0.8,0.6V4.2l0.3-1.5l0.9-0.2l2.3,0.7l2.1,2.5l-0.2,3
		l-2.1,1.9l-1.4,4.6l2.6,1l2.1-2.3l0.8,0.2l-0.6-1.7l0.8-0.8l0.3-0.4l1.4-0.2l0.6-2.5l1.4-0.1l1.2-1.2l1,1.4l0.7,4.5V5.7L12.2,5z"/>
</g>
<path class="st3" d="M4.5,23.9l-0.3-3.4l1.5-3.7l1.7-0.7l-2.6-1l6.5-9.2l-3,2.8l-2.1,1.9l-2.4,2.4l-0.4,5.3l-0.3,3.5L4.5,23.9z"/>
<path class="st8" d="M10.5,10.6l2.3-2.2l-0.6,2.5l-1.4,0.2l-0.5,0.5L10.5,10.6z"/>
<path class="st9" d="M12.1,26.4L10.5,25l-1.4-5l0.7-2.6l-0.3-2.2l2.6,3.9l1.8-0.8l2.2,0.1l-0.2,1.3l-1.5,0.7L14,21.5l0.2,1.1
	l0.4,0.5l-1.1,2.7h-1.2l-0.9-1.3v0.9L12.1,26.4z"/>
<path class="st10" d="M8.4,8.7l0.2-3l1.7,0.6l1.1-0.4L8.4,8.7z M8.1,6l0.3,2.6l0.2-3L7.4,4.3L8.1,6z"/>
<g transform="translate(0 11.213)">
	<defs>
		<filter id="Adobe_OpacityMaskFilter_2_" filterUnits="userSpaceOnUse" x="2.2" y="-5.9" width="4.1" height="7.6">
			<feColorMatrix  type="matrix" values="1 0 0 0 0  0 1 0 0 0  0 0 1 0 0  0 0 0 1 0"/>
		</filter>
	</defs>
	<mask maskUnits="userSpaceOnUse" x="2.2" y="-5.9" width="4.1" height="7.6" id="f_1_">
		<g class="st11">
			<path id="e_1_" class="st1" d="M2.2-5.9h4.1v7.6H2.2V-5.9z"/>
		</g>
	</mask>
	<path class="st12" d="M3.9,1.7L2.8-0.7L2.2-4.3v-1.6l0.8,0.6v1.1L4.2-2l2.1,1.4L3.9,1.7z"/>
</g>
<path class="st8" d="M10.3,14v-1.3l2.2-1l-0.3,0.8l-1.6,0.6L10.3,14z"/>
<path class="st13" d="M12.3,15.4L11,15l-0.7-1l-0.8-0.2l-0.4,0.5l0.4,0.8l0.4,0.6l2.2,3.2l1.2-3.9L12.3,15.4z"/>
<path class="st14" d="M13.8,28.8l-0.6-2.1l-1-0.3L10.5,25L10,23.2l-2,2.6l-1,0.3l1.6,3.5l2.5,1.9l2-1l1.9-1L13.8,28.8z"/>
<path class="st4" d="M25.3,5.7l2.1-2.5l2.3-0.7l0.9,0.2l0.3,1.5V7l-1.2,2.2l-2.1,1.4l-2.1-1.9L25.3,5.7z"/>
<path class="st5" d="M20.6,15.1V14l1.1-1.5l1.6,0.6l0.3,0.9l-0.7,1l-1.3,0.4L20.6,15.1z"/>
<g>
	<g transform="translate(48.42 30.403)">
		<defs>
			<filter id="Adobe_OpacityMaskFilter_3_" filterUnits="userSpaceOnUse" x="-27.3" y="-16.7" width="2" height="1.2">
				<feColorMatrix  type="matrix" values="1 0 0 0 0  0 1 0 0 0  0 0 1 0 0  0 0 0 1 0"/>
			</filter>
		</defs>
		<mask maskUnits="userSpaceOnUse" x="-27.3" y="-16.7" width="2" height="1.2" id="h_1_">
			<g class="st15">
				<path id="g_1_" class="st1" d="M-27.7-16.2v1.1l1,0.3l1.3-0.4l0.7-1l-0.3-0.9l-1.6-0.6"/>
			</g>
		</mask>
		<path class="st16" d="M-26.4-15.9c0.5,0,0.9-0.3,1-0.8c0,0,0,0.1,0,0.1c0,0.6-0.4,1.1-1,1.1s-1-0.5-1-1.1l0,0
			C-27.2-16.2-26.8-15.9-26.4-15.9"/>
	</g>
	<g transform="translate(48.42 30.403)">
		<defs>
			<filter id="Adobe_OpacityMaskFilter_4_" filterUnits="userSpaceOnUse" x="-27.3" y="-17.7" width="2" height="1.8">
				<feColorMatrix  type="matrix" values="1 0 0 0 0  0 1 0 0 0  0 0 1 0 0  0 0 0 1 0"/>
			</filter>
		</defs>
		<mask maskUnits="userSpaceOnUse" x="-27.3" y="-17.7" width="2" height="1.8" id="j_1_">
			<g class="st17">
				<path id="i_1_" class="st1" d="M-27.7-16.2v1.1l1,0.3l1.3-0.4l0.7-1l-0.3-0.9l-1.6-0.6"/>
			</g>
		</mask>
		<path class="st18" d="M-26.4-15.9c-0.4,0-0.8-0.3-1-0.7c0-0.6,0.5-1.1,1-1.1c0.5,0,0.9,0.4,1,0.9C-25.5-16.3-25.9-15.9-26.4-15.9"
			/>
	</g>
	<g transform="translate(48.42 30.403)">
		<defs>
			<filter id="Adobe_OpacityMaskFilter_5_" filterUnits="userSpaceOnUse" x="-26.4" y="-17.2" width="1" height="0.6">
				<feColorMatrix  type="matrix" values="1 0 0 0 0  0 1 0 0 0  0 0 1 0 0  0 0 0 1 0"/>
			</filter>
		</defs>
		<mask maskUnits="userSpaceOnUse" x="-26.4" y="-17.2" width="1" height="0.6" id="l_1_">
			<g class="st19">
				<path id="k_1_" class="st1" d="M-27.7-16.2v1.1l1,0.3l1.3-0.4l0.7-1l-0.3-0.9l-1.6-0.6"/>
			</g>
		</mask>
		<path class="st20" d="M-25.9-16.6l0.5-0.2c0,0-0.2-0.5-1-0.4C-26.4-17.1-26-16.8-25.9-16.6"/>
	</g>
</g>
<g>
	<path class="st5" d="M17.1,12.4L17.6,7l-0.5,0.1V12.4z"/>
	<path class="st21" d="M19.5,20L18,19.3h-2L14.6,20l-0.5,1.2l0.2,1.1l1.2,1.4l1.5,0.5v0h0v0l1.5-0.5l1.2-1.4l0.2-1.1L19.5,20z"/>
	<path d="M17.7,22.1l0.5,0.2h0.7l0.5-0.9l-1-0.7l-1.4-0.3h0l-1.4,0.3l-1,0.7l0.5,0.9h0.7l0.5-0.2l-0.4,0.6l-1.2,0.2l0.8,0.9l1.5,0.5
		h0l1.5-0.5l0.8-0.9l-1.2-0.2L17.7,22.1z M21.6,25.5h-1.2l-3.4-0.8v0h0l-3.4,0.8h-1.2l-0.9-1.3v0.9l0.8,1l1.4,0.4l1.9-0.9l1.5,0.4h0
		l1.5-0.4l1.9,0.9l1.4-0.4l0.8-1v-0.9L21.6,25.5z"/>
	<path class="st22" d="M20.4,26.5l-1.9-0.9l-1.5,0.4l-1.5-0.4l-1.9,0.9l1.9,1l1.5,0.3h0l1.5-0.3L20.4,26.5z"/>
	<path class="st23" d="M20.4,25.5l-1.1-2.7l-0.8,0.9l-1.5,0.5l-1.5-0.5l-0.8-0.9l-1.1,2.7l3.4-0.8L20.4,25.5z"/>
	<path class="st9" d="M20.4,26.5l-1.9,1l-1.5,0.3l-1.5-0.3l-1.9-1l-0.4-0.1l0.6,2.1l2,0.9l1.2,0.3h0l1.2-0.3l2-0.9l0.6-2.1
		L20.4,26.5z"/>
	<g transform="translate(38.642)">
		<defs>
			<filter id="Adobe_OpacityMaskFilter_6_" filterUnits="userSpaceOnUse" x="-21.6" y="1" width="14.8" height="15">
				<feColorMatrix  type="matrix" values="1 0 0 0 0  0 1 0 0 0  0 0 1 0 0  0 0 0 1 0"/>
			</filter>
		</defs>
		<mask maskUnits="userSpaceOnUse" x="-21.6" y="1" width="14.8" height="15" id="n_1_">
			<g class="st24">
				<path id="m_1_" class="st1" d="M-21.6,1h14.8v15h-14.8V1z"/>
			</g>
		</mask>
		<path class="st25" d="M-16.9,4.9l2,0.1l3.6-2.9L-9.1,1l1.5,0.4l0.7,1.1v2.7l-0.8,0.6V4.2l-0.3-1.5l-0.9-0.2l-2.3,0.7l-2.1,2.4
			l0.2,3l2.1,1.8l1.4,4.5l-2.6,1l-2.1-2.3l-0.8,0.2l0.6-1.7l-0.8-0.8l-0.3-0.4l-1.4-0.2l-0.6-2.4l-1.4-0.1L-20,7l-1,1.4l-0.7,4.5
			V5.6L-16.9,4.9z"/>
	</g>
	<path class="st3" d="M29.5,23.7l0.3-3.4l-1.5-3.6L26.5,16l2.6-1l-6.5-9.1l3,2.8l2.1,1.8l2.4,2.4l0.4,5.3l0.3,3.4L29.5,23.7z"/>
	<path class="st8" d="M23.8,5L22,4.5l-2-0.3l-3,0.3l-3-0.3l-2,0.3L10.3,5l2-0.1l4.7,0.7h0l4.7-0.7L23.8,5z M23.5,10.5l-2.3-2.2
		l0.6,2.4l1.4,0.2l0.5,0.5L23.5,10.5z"/>
	<path class="st9" d="M21.8,26.1l1.6-1.4l1.4-5l-0.7-2.6l0.3-2.2l-2.6,3.8L20,17.9l-2.2,0.1l0.2,1.3l1.5,0.7l0.5,1.2l-0.2,1.1
		l-0.4,0.5l1.1,2.7h1.2l1-1.3v0.9L21.8,26.1z"/>
	<path class="st8" d="M17.1,12.9l4.1-4.6l-1.4-0.1L18.7,7l0.2-0.9l-1.8-0.5h0l-1.8,0.5L15.4,7l-1.2,1.2l-1.4,0.1L17.1,12.9
		L17.1,12.9L17.1,12.9L17.1,12.9L17.1,12.9z"/>
	<path class="st10" d="M25.6,8.6l-0.2-3l-1.7,0.6l-1.1-0.4L25.6,8.6z"/>
	<path class="st10" d="M25.9,6l-0.3,2.6l-0.2-3l1.2-1.3L25.9,6z"/>
	<path class="st8" d="M30.1,12.8l1.2-2.4l0.6-3.6V5.3l-0.8,0.6v1.1l-1.2,2.2l-2.1,1.3L30.1,12.8z M23.7,13.9v-1.3l-2.2-1l0.3,0.8
		l1.6,0.6L23.7,13.9z"/>
	<path class="st3" d="M19.4,14.1L20,9.6l-3,3.3L19.4,14.1z"/>
	<g transform="translate(23.763 73.65)">
		<defs>
			<filter id="Adobe_OpacityMaskFilter_7_" filterUnits="userSpaceOnUse" x="-12.4" y="-44.5" width="11.5" height="3.7">
				<feColorMatrix  type="matrix" values="1 0 0 0 0  0 1 0 0 0  0 0 1 0 0  0 0 0 1 0"/>
			</filter>
		</defs>
		<mask maskUnits="userSpaceOnUse" x="-12.4" y="-44.5" width="11.5" height="3.7" id="p_1_">
			<g class="st26">
				<path id="o_1_" class="st1" d="M-12.4-44.5H-1v3.7h-11.5V-44.5z"/>
			</g>
		</mask>
		<path class="st27" d="M-1-42.5l-3.8-2l-0.7,0.3l-1.2,0.3l-1.2-0.3l-0.7-0.3l-3.8,2l0.9,0.7l4.8,1v0h0l4.8-1L-1-42.5z"/>
	</g>
	<path class="st14" d="M8.3,15.2L7.6,16l-1.7,0.7l-1.5,3.6l0.3,3.4l2.1,1.8v-2.3l0.7-2.1l1.4-2.7l-0.1-3.7L8.3,15.2z M28.2,16.7
		L26.5,16l-0.7-0.8l-0.4-0.5l-0.1,3.7l1.4,2.7l0.7,2.1v2.3l2.1-1.8l0.3-3.4L28.2,16.7z"/>
	<path class="st13" d="M24.4,13.7l-0.8,0.2l-0.7,1l-1.3,0.4l-1-0.3l1.2,3.8l2.2-3.2l0.4-0.6l0.4-0.8L24.4,13.7z"/>
	<path class="st28" d="M25.4,14.7l-0.6-0.6l-0.4,0.8l-0.3,2.2l0.7,2.6L24,23l2,2.5l1,0.3l1.9-1.6L25.4,14.7z"/>
	<path class="st14" d="M26,25.5L24,23l-0.5,1.8l-1.6,1.4l-1,0.3l-0.6,2.1l-1.3,0.6l1.9,1l2,1l2.5-1.8l1.6-3.5L26,25.5z"/>
	<path class="st28" d="M8.7,14.7l0.6-0.6l0.4,0.8l0.3,2.2l-0.7,2.6l0.9,3.2l-2,2.5l-1,0.3l-1.9-1.6L8.7,14.7z"/>
	<path class="st5" d="M13.4,14.9v-1l-1.1-1.5L10.8,13l-0.3,0.9l0.7,1l1.3,0.4L13.4,14.9z"/>
</g>
<g>
	<g transform="translate(21.395 30.403)">
		<defs>
			<filter id="Adobe_OpacityMaskFilter_8_" filterUnits="userSpaceOnUse" x="-10.4" y="-16.7" width="2" height="1.2">
				<feColorMatrix  type="matrix" values="1 0 0 0 0  0 1 0 0 0  0 0 1 0 0  0 0 0 1 0"/>
			</filter>
		</defs>
		<mask maskUnits="userSpaceOnUse" x="-10.4" y="-16.7" width="2" height="1.2" id="r_1_">
			<g class="st29">
				<path id="q_1_" class="st1" d="M-10.7-17.2l-0.3,0.9l0.7,1l1.3,0.4l1-0.3v-1.1l-1.1-1.5"/>
			</g>
		</mask>
		<path class="st30" d="M-9.4-15.9c-0.5,0-0.9-0.3-1-0.8c0,0,0,0.1,0,0.1c0,0.6,0.4,1.1,1,1.1c0.5,0,1-0.5,1-1.1l0,0
			C-8.5-16.2-8.9-15.9-9.4-15.9"/>
	</g>
	<g transform="translate(21.395 30.403)">
		<defs>
			<filter id="Adobe_OpacityMaskFilter_9_" filterUnits="userSpaceOnUse" x="-10.4" y="-17.7" width="2" height="1.8">
				<feColorMatrix  type="matrix" values="1 0 0 0 0  0 1 0 0 0  0 0 1 0 0  0 0 0 1 0"/>
			</filter>
		</defs>
		<mask maskUnits="userSpaceOnUse" x="-10.4" y="-17.7" width="2" height="1.8" id="t_1_">
			<g class="st31">
				<path id="s_1_" class="st1" d="M-10.7-17.2l-0.3,0.9l0.7,1l1.3,0.4l1-0.3v-1.1l-1.1-1.5"/>
			</g>
		</mask>
		<path class="st32" d="M-9.4-15.9c0.4,0,0.8-0.3,1-0.7c0-0.6-0.5-1.1-1-1.1c-0.5,0-0.9,0.4-1,0.9C-10.3-16.3-9.9-15.9-9.4-15.9"/>
	</g>
	<g transform="translate(21.395 30.403)">
		<defs>
			<filter id="Adobe_OpacityMaskFilter_10_" filterUnits="userSpaceOnUse" x="-10.3" y="-17.2" width="1" height="0.6">
				<feColorMatrix  type="matrix" values="1 0 0 0 0  0 1 0 0 0  0 0 1 0 0  0 0 0 1 0"/>
			</filter>
		</defs>
		<mask maskUnits="userSpaceOnUse" x="-10.3" y="-17.2" width="1" height="0.6" id="v_1_">
			<g class="st33">
				<path id="u_1_" class="st1" d="M-10.7-17.2l-0.3,0.9l0.7,1l1.3,0.4l1-0.3v-1.1l-1.1-1.5"/>
			</g>
		</mask>
		<path class="st34" d="M-9.8-16.6l-0.5-0.2c0,0,0.2-0.5,1-0.4C-9.3-17.1-9.7-16.8-9.8-16.6"/>
	</g>
</g>
<g>
	<path class="st35" d="M17,13.1l-1,6.4h2L17,13.1z"/>
	<path class="st3" d="M27.9,27v-0.1h0.4V27h-0.1v0.4H28V27H27.9z M28.8,26.9L28.8,26.9l0,0.5h-0.1v-0.2l-0.1,0.1h0l-0.1-0.1v0.2
		h-0.1v-0.5h0.1l0.2,0.2L28.8,26.9z"/>
	<path class="st3" d="M28.4,26.4c-0.4,0-0.8,0.4-0.8,0.8c0,0.4,0.3,0.8,0.8,0.8c0.4,0,0.8-0.4,0.8-0.8
		C29.2,26.7,28.8,26.4,28.4,26.4 M28.4,28c-0.5,0-0.9-0.4-0.9-0.9c0-0.5,0.4-0.9,0.9-0.9c0.5,0,0.9,0.4,0.9,0.9
		C29.3,27.6,28.9,28,28.4,28"/>
</g>
</svg>
