<?xml version="1.0" encoding="utf-8"?>
<!-- Generator: Adobe Illustrator 21.0.0, SVG Export Plug-In . SVG Version: 6.00 Build 0)  -->
<svg version="1.1" id="Layer_1" xmlns="http://www.w3.org/2000/svg" xmlns:xlink="http://www.w3.org/1999/xlink" x="0px" y="0px"
	 viewBox="0 0 34 34" style="enable-background:new 0 0 34 34;" xml:space="preserve">
<style type="text/css">
	.st0{fill:url(#SVGID_1_);}
	.st1{fill:url(#SVGID_2_);}
	.st2{fill:url(#SVGID_3_);}
	.st3{fill:url(#SVGID_4_);}
	.st4{fill:url(#SVGID_5_);}
	.st5{fill:url(#SVGID_6_);}
	.st6{fill:url(#SVGID_7_);}
	.st7{fill:url(#SVGID_8_);}
	.st8{fill:url(#SVGID_9_);}
	.st9{fill:url(#SVGID_10_);}
</style>
<g>
	<linearGradient id="SVGID_1_" gradientUnits="userSpaceOnUse" x1="0.8692" y1="23.1053" x2="3.4218" y2="26.8492">
		<stop  offset="0" style="stop-color:#723FCA"/>
		<stop  offset="1" style="stop-color:#48238C"/>
	</linearGradient>
	<polygon class="st0" points="2.7,28.9 4.4,25.3 0.9,23.1 	"/>
	<linearGradient id="SVGID_2_" gradientUnits="userSpaceOnUse" x1="10.6936" y1="22.8616" x2="3.9717" y2="27.2011">
		<stop  offset="0" style="stop-color:#422083"/>
		<stop  offset="1" style="stop-color:#422083"/>
	</linearGradient>
	<polygon class="st1" points="7.5,22.7 14.3,22.7 2.7,28.9 4.4,25.3 	"/>
	<linearGradient id="SVGID_3_" gradientUnits="userSpaceOnUse" x1="2.864" y1="17.6899" x2="10.607" y2="22.625">
		<stop  offset="0" style="stop-color:#723FCA"/>
		<stop  offset="1" style="stop-color:#48238C"/>
	</linearGradient>
	<polygon class="st2" points="0.9,18.7 4.4,17 14.3,22.7 7.5,22.7 	"/>
	<linearGradient id="SVGID_4_" gradientUnits="userSpaceOnUse" x1="4.4478" y1="19.2624" x2="21.9546" y2="19.2624">
		<stop  offset="0" style="stop-color:#631453"/>
		<stop  offset="1" style="stop-color:#581962"/>
	</linearGradient>
	<polygon class="st3" points="8.1,15.8 22,22.6 14.3,22.7 4.4,17 	"/>
	<linearGradient id="SVGID_5_" gradientUnits="userSpaceOnUse" x1="0.9167" y1="27.9782" x2="21.9546" y2="27.9782">
		<stop  offset="0" style="stop-color:#48238C"/>
		<stop  offset="1" style="stop-color:#723FCA"/>
	</linearGradient>
	<polygon class="st4" points="0.9,33.3 2.7,28.9 14.3,22.7 22,22.6 	"/>
	<linearGradient id="SVGID_6_" gradientUnits="userSpaceOnUse" x1="0.9167" y1="28.2441" x2="2.7248" y2="28.2441">
		<stop  offset="0" style="stop-color:#422083"/>
		<stop  offset="1" style="stop-color:#422083"/>
	</linearGradient>
	<polygon class="st5" points="0.9,23.1 0.9,33.3 2.7,28.9 	"/>
	<linearGradient id="SVGID_7_" gradientUnits="userSpaceOnUse" x1="2.7673" y1="18.7199" x2="2.7673" y2="0.67">
		<stop  offset="0" style="stop-color:#7B255D"/>
		<stop  offset="1" style="stop-color:#9F0002"/>
	</linearGradient>
	<polygon class="st6" points="0.9,0.7 4.6,6.5 4.4,17 0.9,18.7 	"/>
	<linearGradient id="SVGID_8_" gradientUnits="userSpaceOnUse" x1="0.9167" y1="9.695" x2="33.25" y2="9.695">
		<stop  offset="0" style="stop-color:#9F0002"/>
		<stop  offset="1" style="stop-color:#730F38"/>
	</linearGradient>
	<polygon class="st7" points="33.3,17 29.8,18.7 4.6,6.5 0.9,0.7 	"/>
	<linearGradient id="SVGID_9_" gradientUnits="userSpaceOnUse" x1="4.618" y1="13.6026" x2="29.8465" y2="13.6026">
		<stop  offset="0" style="stop-color:#9F0002"/>
		<stop  offset="1" style="stop-color:#601658"/>
	</linearGradient>
	<polygon class="st8" points="26.1,20.7 29.8,18.7 4.6,6.5 8.1,11.4 	"/>
	<linearGradient id="SVGID_10_" gradientUnits="userSpaceOnUse" x1="6.2985" y1="17.0069" x2="6.2985" y2="6.5282">
		<stop  offset="0" style="stop-color:#691249"/>
		<stop  offset="1" style="stop-color:#830822"/>
	</linearGradient>
	<polygon class="st9" points="4.6,6.5 4.4,17 8.1,15.8 8.1,11.4 	"/>
</g>
</svg>
