<?xml version="1.0" encoding="utf-8"?>
<!-- Generator: Adobe Illustrator 21.0.0, SVG Export Plug-In . SVG Version: 6.00 Build 0)  -->
<svg version="1.1" id="Layer_1" xmlns="http://www.w3.org/2000/svg" xmlns:xlink="http://www.w3.org/1999/xlink" x="0px" y="0px"
	 viewBox="0 0 34 34" style="enable-background:new 0 0 34 34;" xml:space="preserve">
<style type="text/css">
	.st0{fill:#4D69D6;}
</style>
<g>
	<path class="st0" d="M28,21.6c-0.6,0-1.1-0.2-1.5-0.6l-4-4.2l0,0l-3-3.1L30,2.8c0.4-0.4,0.9-0.6,1.5-0.6c0.6,0,1.1,0.2,1.5,0.6
		c0.4,0.4,0.6,1,0.6,1.5S33.4,5.5,33,5.9l-7.6,7.8l4,4.2c0.4,0.4,0.6,1,0.6,1.5c0,0.6-0.2,1.1-0.6,1.5C29.1,21.4,28.5,21.6,28,21.6z
		"/>
	<path class="st0" d="M29.1,31.8c-0.6,0-1.1-0.2-1.5-0.6L20,23.3l-4,4.2c-0.4,0.4-0.9,0.6-1.5,0.6c-0.6,0-1.1-0.2-1.5-0.6
		c-0.8-0.9-0.8-2.2,0-3.1l4-4.2l0,0l3-3.1L30.6,28c0.4,0.4,0.6,1,0.6,1.5c0,0.6-0.2,1.1-0.6,1.5C30.2,31.5,29.7,31.8,29.1,31.8z"/>
	<path class="st0" d="M2.5,31.8c-0.6,0-1.1-0.2-1.5-0.6c-0.8-0.9-0.8-2.2,0-3.1l7.6-7.8l-4-4.2c-0.4-0.4-0.6-1-0.6-1.5
		c0-0.6,0.2-1.1,0.6-1.5s0.9-0.6,1.5-0.6c0.6,0,1.1,0.2,1.5,0.6l4,4.2l0,0l3,3.1L4,31.2C3.6,31.6,3,31.8,2.5,31.8z"/>
	<path class="st0" d="M3.5,6C3.1,5.5,2.9,5,2.9,4.4s0.2-1.1,0.6-1.5S4.4,2.2,5,2.2c0.6,0,1.1,0.2,1.5,0.6l7.6,7.8l4-4.2
		c0.4-0.4,0.9-0.6,1.5-0.6c0.6,0,1.1,0.2,1.5,0.6c0.8,0.9,0.8,2.2,0,3.1l-4,4.2l0,0l-3,3.1L3.5,6z"/>
</g>
</svg>
