<?xml version="1.0" encoding="utf-8"?>
<!-- Generator: Adobe Illustrator 21.0.0, SVG Export Plug-In . SVG Version: 6.00 Build 0)  -->
<svg version="1.1" id="Layer_1" xmlns="http://www.w3.org/2000/svg" xmlns:xlink="http://www.w3.org/1999/xlink" x="0px" y="0px"
	 viewBox="0 0 34 34" style="enable-background:new 0 0 34 34;" xml:space="preserve">
<style type="text/css">
	.st0{fill:#5CB54B;}
	.st1{fill:#E93F33;}
</style>
<g id="Artboard_2_">
	<g id="Group-10_2_" transform="translate(0.000000, 4.000000)">
		<g id="logo_2_">
			<path id="Path_4_" class="st0" d="M1.8,4.1h8.7c0.6,0,1.2,0.3,1.6,0.9l5.1,8.3l-5.1,8.3c-0.2,0.3-0.6,0.4-0.8,0.2
				c-0.1,0-0.1-0.1-0.2-0.2L1.3,5C1.2,4.7,1.2,4.4,1.6,4.2C1.7,4.1,1.7,4.1,1.8,4.1z"/>
			<path id="Path_3_" class="st1" d="M32.6,4.1h-8.7c-0.6,0-1.2,0.3-1.6,0.9l-5.1,8.3l5.1,8.3c0.2,0.3,0.6,0.4,0.8,0.2
				c0.1,0,0.1-0.1,0.2-0.2L33.1,5c0.2-0.3,0.1-0.7-0.2-0.8C32.8,4.1,32.7,4.1,32.6,4.1z"/>
		</g>
	</g>
</g>
</svg>
