<?xml version="1.0" encoding="utf-8"?>
<!-- Generator: Adobe Illustrator 21.0.0, SVG Export Plug-In . SVG Version: 6.00 Build 0)  -->
<svg version="1.1" id="Layer_1" xmlns="http://www.w3.org/2000/svg" xmlns:xlink="http://www.w3.org/1999/xlink" x="0px" y="0px"
	 viewBox="0 0 34 34" style="enable-background:new 0 0 34 34;" xml:space="preserve">
<style type="text/css">
	.st0{fill:#FFFFFF;}
	.st1{fill:#F7A800;}
	.st2{fill:#67B2E8;}
	.st3{fill:#00C4B3;}
</style>
<g id="NEM">
	<g id="Group">
		<g id="Vector" transform="translate(114 -188.972)">
			<path id="path0_fill" class="st0" d="M-97,222.5l-0.2-0.1c-7.4-4.4-13.1-11.5-15.4-20.2c-0.4-1.4-0.7-2.7-0.8-4.1
				c-0.2-1.4-0.3-2.8-0.3-4.2c0-0.2,0-0.2,0.2-0.3c2.8-1.6,5.8-2.7,8.9-3.5c1.2-0.3,2.3-0.5,3.5-0.6c1.7-0.2,3.2-0.3,4.9-0.2
				c0.9,0,1.9,0.1,2.7,0.2c4.6,0.5,8.8,1.9,12.8,4.1c0.1,0,0.1,0.1,0.2,0.1c0.1,0,0.1,0.1,0.1,0.2v0.2c0,0.8-0.1,1.7-0.1,2.4
				c-0.1,1.2-0.3,2.3-0.5,3.5c-0.5,2.5-1.3,4.9-2.3,7.2c-1.7,3.7-3.9,6.9-6.8,9.8c-2.1,2.1-4.3,3.8-6.8,5.3
				C-96.8,222.4-96.9,222.4-97,222.5L-97,222.5z"/>
		</g>
		<g id="Vector_1_" transform="translate(115.453 -187.596)">
			<path id="path1_fill" class="st1" d="M-113.6,193.3c2.1-1.2,4.2-2.1,6.5-2.7c3-0.9,6.2-1.4,9.3-1.3c1.5,0,3.9,0.3,4.4,0.4
				c0,0,0,0.1-0.1,0.1c-0.1,0.1-0.3,0.1-0.5,0.2c-2.6,1.1-4.5,3.4-5,6.2c-0.1,0.5-0.1,0.9-0.1,1.4c0,0.7-0.1,1.4-0.3,2.1
				c-0.7,2.4-2.7,4.4-5.2,5c-3.3,0.8-6.6-0.9-8-3.9c-0.1-0.2-0.1-0.4-0.2-0.5c-0.2-1.1-0.4-2.1-0.6-3.1c-0.1-1.2-0.2-2.3-0.2-3.5
				C-113.6,193.4-113.6,193.4-113.6,193.3L-113.6,193.3z"/>
		</g>
		<g id="Vector_2_" transform="translate(130.673 -186.319)">
			<path id="path2_fill" class="st2" d="M-105.4,211.1c0-0.3,0.1-0.6,0.1-0.9c0.1-1.6-0.3-3-1-4.5c-0.7-1.3-1.8-2.3-3-3.1
				c-0.1-0.1-0.2-0.1-0.4-0.2c-1.8-1.1-2.8-2.6-3.2-4.7c-0.7-3.7,1.7-7.2,5.3-8.1c1.3-0.3,2.5-0.3,3.8,0.1c1.1,0.3,2.1,0.8,3,1.2
				c0.7,0.3,1.4,0.7,2,1.1c0.1,0.1,0.1,0.1,0.2,0.1c0,0.1,0,0.1,0,0.2c0,0.9-0.1,1.7-0.1,2.5c-0.1,1.3-0.3,2.4-0.6,3.7
				c-0.8,3.6-2.2,6.9-4.2,10c-0.6,0.9-1.2,1.7-1.8,2.4C-105.3,211-105.3,211-105.4,211.1L-105.4,211.1z"/>
		</g>
		<g id="Vector_3_" transform="translate(117.423 -173.453)">
			<path id="path3_fill" class="st3" d="M-100.4,205.3c-0.2-0.1-1-0.6-1.8-1.1c-1.8-1.2-3.3-2.5-4.8-4c-1.5-1.5-2.7-3.1-3.9-4.9
				c-1.1-1.7-2-3.3-2.6-5.2c0-0.1,0-0.1-0.1-0.2c0.1,0.1,0.1,0.1,0.2,0.1c0.6,0.4,1.2,0.8,1.8,1.1c0.8,0.4,1.7,0.6,2.5,0.7
				c1.8,0.2,3.5-0.2,5.1-1.1c0.8-0.5,1.8-0.8,2.6-0.9c3.3-0.4,6.7,1.6,7.6,5c0.5,1.8,0.4,3.5-0.5,5.2c-0.1,0.2-0.2,0.4-0.3,0.7
				c-0.1,0.1-0.1,0.3-0.3,0.4C-96.5,202.7-98.3,204.2-100.4,205.3C-100.3,205.3-100.4,205.3-100.4,205.3L-100.4,205.3z"/>
		</g>
	</g>
</g>
</svg>
